<svg xmlns="http://www.w3.org/2000/svg" xmlns:xlink="http://www.w3.org/1999/xlink" width="139" zoomAndPan="magnify" viewBox="0 0 104.25 116.249995" height="155" preserveAspectRatio="xMidYMid meet" version="1.0"><defs><g/><clipPath id="3afe1b6fe3"><path d="M 55.851562 23.738281 L 78.605469 23.738281 L 78.605469 37.722656 L 55.851562 37.722656 Z M 55.851562 23.738281 " clip-rule="nonzero"/></clipPath><clipPath id="33750682d3"><path d="M 51.214844 18.179688 L 92.492188 18.179688 L 92.492188 41.667969 L 51.214844 41.667969 Z M 51.214844 18.179688 " clip-rule="nonzero"/></clipPath><clipPath id="c2d0ab42be"><path d="M 77.40625 24.933594 C 64 23.890625 61.992188 24.636719 60.277344 25.605469 C 58.714844 26.421875 56.925781 27.6875 56.40625 28.878906 C 55.957031 29.773438 56.183594 30.964844 56.554688 31.785156 C 56.851562 32.601562 57.523438 33.199219 58.339844 33.867188 C 59.683594 34.761719 61.839844 35.582031 64.148438 36.101562 C 67.425781 36.773438 73.085938 36.921875 76.363281 36.625 C 78.671875 36.402344 80.382812 36.101562 82.097656 35.285156 C 83.808594 34.539062 85.894531 33.050781 86.5625 31.933594 C 87.011719 31.1875 87.160156 30.292969 87.011719 29.625 C 86.863281 28.953125 86.414062 28.433594 85.746094 27.761719 C 84.402344 26.644531 81.574219 25.082031 79.042969 24.261719 C 75.988281 23.371094 71.820312 23.144531 68.542969 23.371094 C 65.414062 23.519531 61.246094 25.902344 59.53125 25.230469 C 58.566406 24.859375 57.96875 23.519531 57.894531 22.847656 C 57.820312 22.253906 58.117188 21.730469 58.417969 21.359375 C 58.863281 20.914062 59.90625 20.464844 60.574219 20.539062 C 61.246094 20.539062 62.140625 21.210938 62.4375 21.804688 C 62.808594 22.328125 62.808594 23.445312 62.511719 24.039062 C 62.140625 24.636719 61.246094 25.304688 60.574219 25.378906 C 59.90625 25.453125 58.9375 25.007812 58.492188 24.488281 C 58.042969 24.039062 57.820312 22.921875 57.96875 22.328125 C 58.117188 21.65625 58.714844 21.136719 59.53125 20.613281 C 61.023438 19.722656 64.523438 18.976562 66.90625 18.53125 C 69.066406 18.230469 71 18.15625 73.160156 18.304688 C 75.542969 18.453125 78.222656 18.753906 80.605469 19.496094 C 82.988281 20.242188 85.894531 21.507812 87.457031 22.550781 C 88.425781 23.144531 88.796875 23.59375 89.46875 24.414062 C 90.4375 25.679688 92 28.0625 92.296875 29.625 C 92.519531 30.816406 92.371094 31.933594 91.851562 33.050781 C 91.253906 34.390625 89.839844 35.804688 88.574219 36.921875 C 87.160156 38.113281 85.519531 39.15625 83.660156 39.902344 C 81.648438 40.71875 79.5625 41.242188 76.734375 41.464844 C 72.714844 41.761719 65.566406 41.464844 61.765625 40.570312 C 59.308594 39.976562 57.597656 39.378906 55.957031 38.113281 C 54.320312 36.847656 52.609375 34.613281 51.863281 33.050781 C 51.417969 32.007812 51.269531 31.1875 51.34375 30.070312 C 51.492188 28.65625 52.234375 26.496094 53.128906 25.230469 C 53.800781 24.113281 54.617188 23.519531 55.734375 22.773438 C 57.226562 21.804688 59.234375 20.835938 61.320312 20.242188 C 63.628906 19.496094 66.457031 18.902344 69.289062 18.902344 C 72.414062 18.976562 77.777344 19.570312 79.265625 20.914062 C 79.9375 21.582031 80.160156 22.699219 80.011719 23.371094 C 79.9375 23.890625 79.414062 24.335938 78.96875 24.636719 C 78.597656 24.859375 77.40625 24.933594 77.40625 24.933594 " clip-rule="nonzero"/></clipPath><clipPath id="5246505dff"><path d="M 73.578125 24.085938 L 88 24.085938 L 88 37.472656 L 73.578125 37.472656 Z M 73.578125 24.085938 " clip-rule="nonzero"/></clipPath><clipPath id="992df54021"><path d="M 73.605469 29.847656 C 75.320312 26.050781 76.511719 25.230469 77.40625 24.785156 C 78.222656 24.335938 79.042969 24.039062 79.863281 24.113281 C 80.90625 24.1875 82.839844 25.453125 83.0625 25.679688 C 83.0625 25.753906 83.0625 25.753906 83.0625 25.753906 C 83.210938 25.828125 84.253906 25.230469 84.925781 25.378906 C 85.820312 25.605469 87.160156 26.796875 87.605469 27.6875 C 87.980469 28.507812 87.53125 29.921875 87.679688 30.445312 C 87.753906 30.667969 87.902344 30.667969 87.902344 30.890625 C 88.054688 31.410156 87.980469 32.902344 87.605469 33.71875 C 87.308594 34.613281 86.636719 35.65625 85.746094 36.175781 C 84.777344 36.847656 82.320312 37.21875 81.796875 37.070312 C 81.648438 37.070312 81.648438 36.921875 81.5 36.847656 C 81.054688 36.773438 79.488281 37.519531 78.820312 37.445312 C 78.371094 37.367188 77.851562 36.921875 77.777344 36.847656 C 77.703125 36.847656 77.554688 36.921875 77.480469 36.921875 C 77.40625 36.921875 77.40625 36.921875 77.332031 36.921875 C 77.332031 36.921875 77.253906 36.921875 77.179688 36.921875 C 77.105469 36.921875 77.03125 36.847656 76.957031 36.847656 C 76.882812 36.773438 76.734375 36.773438 76.660156 36.773438 C 76.585938 36.773438 76.585938 36.699219 76.585938 36.699219 C 76.511719 36.699219 76.4375 36.699219 76.4375 36.699219 C 76.363281 36.625 76.289062 36.550781 76.214844 36.550781 C 76.140625 36.476562 75.988281 36.476562 75.914062 36.402344 C 75.914062 36.328125 75.914062 36.328125 75.839844 36.328125 C 75.839844 36.253906 75.765625 36.253906 75.691406 36.175781 C 75.691406 36.175781 75.617188 36.027344 75.542969 36.027344 C 75.46875 35.953125 75.394531 35.878906 75.394531 35.804688 C 75.320312 35.730469 75.394531 35.730469 75.320312 35.730469 C 75.320312 35.65625 75.246094 35.65625 75.246094 35.582031 C 75.171875 35.433594 75.023438 34.984375 74.949219 34.761719 C 74.949219 34.613281 75.023438 34.613281 74.949219 34.464844 C 74.871094 33.867188 73.753906 30.890625 73.753906 30.59375 C 73.832031 30.519531 73.832031 30.519531 73.832031 30.519531 C 73.832031 30.371094 73.605469 29.847656 73.605469 29.847656 " clip-rule="nonzero"/></clipPath><clipPath id="c957fbad6c"><path d="M 74.738281 25.175781 L 89.269531 25.175781 L 89.269531 37.203125 L 74.738281 37.203125 Z M 74.738281 25.175781 " clip-rule="nonzero"/></clipPath><clipPath id="b538033451"><path d="M 82.320312 29.773438 C 80.457031 30.371094 79.339844 31.933594 79.488281 32.082031 C 79.714844 32.304688 82.839844 30.964844 83.808594 29.921875 C 84.703125 28.953125 84.480469 26.871094 85.296875 26.273438 C 85.894531 25.828125 87.011719 25.828125 87.679688 26.125 C 88.351562 26.421875 88.945312 27.242188 89.171875 27.988281 C 89.394531 29.027344 89.09375 30.667969 88.425781 31.785156 C 87.605469 33.050781 85.59375 34.242188 84.105469 34.984375 C 82.691406 35.730469 80.90625 36.699219 79.714844 36.402344 C 78.746094 36.175781 77.628906 35.058594 77.480469 34.242188 C 77.332031 33.421875 78.222656 31.859375 78.96875 31.484375 C 79.5625 31.113281 80.753906 31.335938 81.351562 31.636719 C 81.871094 31.859375 82.320312 32.378906 82.46875 32.902344 C 82.617188 33.496094 82.617188 34.6875 82.171875 35.285156 C 81.796875 35.878906 80.753906 36.476562 80.011719 36.476562 C 79.339844 36.476562 78.296875 35.878906 77.851562 35.285156 C 77.480469 34.6875 77.253906 33.644531 77.628906 32.902344 C 78.148438 31.785156 81.203125 31.1875 82.542969 30.070312 C 83.734375 28.953125 84.179688 26.796875 85.296875 26.273438 C 86.117188 25.828125 87.53125 25.902344 88.203125 26.421875 C 88.871094 26.945312 89.246094 28.285156 89.171875 29.402344 C 89.09375 30.816406 88.054688 33.050781 87.234375 34.09375 C 86.5625 34.910156 85.746094 35.359375 84.851562 35.730469 C 83.957031 36.101562 82.914062 36.402344 82.019531 36.328125 C 81.054688 36.253906 79.863281 35.804688 79.191406 35.210938 C 78.523438 34.539062 78.074219 33.421875 77.925781 32.601562 C 77.851562 31.785156 77.925781 31.039062 78.296875 30.292969 C 78.671875 29.476562 79.636719 28.582031 80.53125 28.0625 C 81.277344 27.613281 82.246094 27.242188 82.988281 27.316406 C 83.808594 27.316406 84.777344 27.613281 85.371094 28.210938 C 86.042969 28.878906 86.5625 30.371094 86.5625 31.335938 C 86.5625 32.230469 86.191406 33.125 85.59375 33.945312 C 84.703125 35.058594 82.542969 36.699219 81.128906 37.070312 C 80.011719 37.367188 78.746094 36.996094 77.777344 36.625 C 77.03125 36.253906 76.289062 35.582031 75.839844 34.984375 C 75.320312 34.316406 74.871094 33.644531 74.796875 32.753906 C 74.722656 31.785156 74.949219 30.445312 75.617188 29.328125 C 76.4375 27.988281 78.597656 26.125 79.9375 25.527344 C 80.828125 25.15625 81.722656 25.082031 82.394531 25.304688 C 82.914062 25.453125 83.4375 25.753906 83.734375 26.199219 C 84.03125 26.796875 84.179688 27.761719 83.957031 28.359375 C 83.734375 28.953125 82.320312 29.773438 82.320312 29.773438 " clip-rule="nonzero"/></clipPath><clipPath id="b52e31ec22"><path d="M 73.84375 26.472656 L 82.046875 26.472656 L 82.046875 37.792969 L 73.84375 37.792969 Z M 73.84375 26.472656 " clip-rule="nonzero"/></clipPath><clipPath id="e040ad5fa9"><path d="M 81.054688 30.445312 C 79.5625 32.527344 81.648438 33.71875 81.871094 34.6875 C 82.097656 35.359375 81.871094 36.328125 81.5 36.847656 C 81.054688 37.367188 80.160156 37.742188 79.414062 37.742188 C 78.371094 37.742188 76.882812 36.847656 75.988281 36.101562 C 75.171875 35.433594 74.277344 34.464844 73.980469 33.496094 C 73.753906 32.601562 73.832031 31.410156 74.203125 30.371094 C 74.574219 29.253906 75.691406 27.761719 76.585938 27.167969 C 77.332031 26.71875 78.222656 26.496094 78.894531 26.644531 C 79.414062 26.71875 79.9375 27.09375 80.234375 27.464844 C 80.53125 27.910156 80.753906 28.433594 80.753906 29.027344 C 80.679688 29.625 80.234375 30.667969 79.636719 31.039062 C 79.117188 31.484375 78 31.5625 77.332031 31.335938 C 76.734375 31.113281 75.914062 30.292969 75.839844 29.550781 C 75.691406 28.804688 76.363281 27.242188 77.03125 26.871094 C 77.777344 26.421875 79.414062 26.796875 80.011719 27.316406 C 80.53125 27.761719 80.90625 28.804688 80.679688 29.550781 C 80.457031 30.371094 78.222656 31.039062 78.296875 31.710938 C 78.371094 32.453125 80.679688 32.976562 81.351562 33.644531 C 81.722656 34.167969 82.019531 34.6875 82.019531 35.210938 C 81.945312 35.953125 81.277344 37.21875 80.53125 37.59375 C 79.863281 37.890625 78.597656 37.59375 77.851562 37.21875 C 77.03125 36.847656 76.214844 36.253906 75.765625 35.359375 C 75.097656 34.242188 74.722656 32.007812 75.023438 30.742188 C 75.246094 29.773438 75.839844 29.027344 76.511719 28.359375 C 77.253906 27.613281 78.597656 26.421875 79.488281 26.496094 C 80.308594 26.496094 81.425781 27.242188 81.648438 27.910156 C 81.945312 28.582031 81.054688 30.445312 81.054688 30.445312 " clip-rule="nonzero"/></clipPath><clipPath id="94901d40fd"><path d="M 73.410156 24.5625 L 79.890625 24.5625 L 79.890625 37.28125 L 73.410156 37.28125 Z M 73.410156 24.5625 " clip-rule="nonzero"/></clipPath><clipPath id="eb87816d84"><path d="M 78.648438 26.574219 C 75.671875 30.445312 75.671875 31.191406 76.042969 32.011719 C 76.636719 33.203125 79.542969 34.617188 79.839844 35.585938 C 79.988281 36.179688 79.765625 36.925781 79.394531 37.074219 C 79.019531 37.371094 77.828125 37.074219 77.53125 36.777344 C 77.308594 36.476562 77.234375 35.882812 77.382812 35.585938 C 77.605469 35.210938 78.351562 34.765625 78.796875 34.765625 C 79.171875 34.765625 79.617188 35.136719 79.765625 35.4375 C 79.914062 35.882812 79.839844 36.703125 79.46875 37 C 79.171875 37.296875 78.5 37.296875 77.902344 37.148438 C 77.160156 36.925781 76.042969 35.957031 75.371094 35.0625 C 74.554688 34.09375 73.734375 32.605469 73.511719 31.488281 C 73.363281 30.671875 73.4375 29.925781 73.734375 29.105469 C 74.105469 28.136719 74.925781 26.871094 75.746094 26.054688 C 76.488281 25.382812 77.605469 24.5625 78.203125 24.5625 C 78.574219 24.636719 78.871094 25.011719 78.945312 25.308594 C 79.09375 25.679688 78.648438 26.574219 78.648438 26.574219 " clip-rule="nonzero"/></clipPath><clipPath id="84f4d4e3ef"><path d="M 73.546875 27.429688 L 79.429688 27.429688 L 79.429688 37.863281 L 73.546875 37.863281 Z M 73.546875 27.429688 " clip-rule="nonzero"/></clipPath><clipPath id="db2f7556e9"><path d="M 77.605469 37.667969 C 74.777344 34.46875 74.03125 32.976562 73.882812 31.710938 C 73.808594 30.59375 74.105469 28.957031 74.703125 28.285156 C 75.222656 27.765625 76.339844 27.320312 76.789062 27.46875 C 77.160156 27.617188 77.457031 28.363281 77.457031 28.808594 C 77.382812 29.402344 76.414062 30 76.265625 30.671875 C 76.042969 31.414062 75.894531 32.308594 76.191406 33.054688 C 76.636719 33.945312 78.574219 34.691406 78.945312 35.511719 C 79.246094 36.03125 79.394531 36.703125 79.171875 37.074219 C 78.945312 37.445312 78.054688 37.742188 77.679688 37.667969 C 77.308594 37.59375 76.863281 37.222656 76.789062 36.851562 C 76.636719 36.476562 76.710938 35.882812 76.9375 35.585938 C 77.234375 35.285156 78.128906 35.0625 78.5 35.210938 C 78.871094 35.359375 79.394531 36.105469 79.320312 36.550781 C 79.320312 37 78.722656 37.667969 78.277344 37.742188 C 77.53125 37.820312 75.894531 36.703125 75.148438 35.882812 C 74.328125 34.988281 73.660156 33.648438 73.585938 32.382812 C 73.511719 31.042969 74.253906 28.4375 75.148438 27.839844 C 75.671875 27.46875 76.863281 27.46875 77.234375 27.914062 C 77.753906 28.511719 76.191406 30.96875 76.488281 32.457031 C 76.789062 33.945312 79.394531 35.808594 79.394531 36.777344 C 79.394531 37.296875 78.945312 37.742188 78.648438 37.820312 C 78.351562 37.96875 77.605469 37.667969 77.605469 37.667969 " clip-rule="nonzero"/></clipPath><clipPath id="4b3500d8df"><path d="M 25.015625 51.523438 L 45.832031 51.523438 L 45.832031 65.507812 L 25.015625 65.507812 Z M 25.015625 51.523438 " clip-rule="nonzero"/></clipPath><clipPath id="c8af3ad927"><path d="M 9.859375 46.003906 L 51.136719 46.003906 L 51.136719 69.492188 L 9.859375 69.492188 Z M 9.859375 46.003906 " clip-rule="nonzero"/></clipPath><clipPath id="7ca2f12ebb"><path d="M 36.050781 52.757812 C 22.648438 51.714844 20.636719 52.460938 18.921875 53.429688 C 17.359375 54.25 15.574219 55.515625 15.050781 56.707031 C 14.605469 57.597656 14.828125 58.789062 15.199219 59.609375 C 15.5 60.429688 16.167969 61.023438 16.988281 61.695312 C 18.328125 62.589844 20.488281 63.40625 22.796875 63.929688 C 26.070312 64.597656 31.730469 64.746094 35.007812 64.449219 C 37.316406 64.226562 39.027344 63.929688 40.742188 63.109375 C 42.453125 62.363281 44.539062 60.875 45.210938 59.757812 C 45.65625 59.015625 45.804688 58.121094 45.65625 57.449219 C 45.507812 56.78125 45.058594 56.257812 44.390625 55.589844 C 43.050781 54.472656 40.21875 52.90625 37.6875 52.089844 C 34.636719 51.195312 30.464844 50.972656 27.1875 51.195312 C 24.0625 51.34375 19.890625 53.726562 18.179688 53.058594 C 17.210938 52.683594 16.613281 51.34375 16.539062 50.675781 C 16.464844 50.078125 16.765625 49.558594 17.0625 49.183594 C 17.507812 48.738281 18.550781 48.292969 19.222656 48.367188 C 19.890625 48.367188 20.785156 49.035156 21.082031 49.632812 C 21.457031 50.152344 21.457031 51.269531 21.15625 51.867188 C 20.785156 52.460938 19.890625 53.132812 19.222656 53.207031 C 18.550781 53.28125 17.582031 52.832031 17.136719 52.3125 C 16.691406 51.867188 16.464844 50.75 16.613281 50.152344 C 16.765625 49.484375 17.359375 48.960938 18.179688 48.441406 C 19.667969 47.546875 23.167969 46.800781 25.550781 46.355469 C 27.710938 46.058594 29.644531 45.984375 31.804688 46.132812 C 34.1875 46.28125 36.871094 46.578125 39.253906 47.324219 C 41.636719 48.066406 44.539062 49.332031 46.101562 50.375 C 47.070312 50.972656 47.441406 51.417969 48.113281 52.238281 C 49.082031 53.503906 50.644531 55.886719 50.941406 57.449219 C 51.167969 58.640625 51.019531 59.757812 50.496094 60.875 C 49.902344 62.214844 48.484375 63.632812 47.21875 64.746094 C 45.804688 65.9375 44.167969 66.980469 42.304688 67.726562 C 40.292969 68.546875 38.210938 69.066406 35.378906 69.289062 C 31.359375 69.589844 24.210938 69.289062 20.414062 68.398438 C 17.957031 67.800781 16.242188 67.207031 14.605469 65.9375 C 12.964844 64.671875 11.253906 62.441406 10.507812 60.875 C 10.0625 59.832031 9.914062 59.015625 9.988281 57.898438 C 10.136719 56.480469 10.882812 54.324219 11.773438 53.058594 C 12.445312 51.941406 13.265625 51.34375 14.382812 50.601562 C 15.871094 49.632812 17.882812 48.664062 19.964844 48.066406 C 22.273438 47.324219 25.105469 46.726562 27.933594 46.726562 C 31.0625 46.800781 36.421875 47.398438 37.910156 48.738281 C 38.582031 49.410156 38.804688 50.523438 38.65625 51.195312 C 38.582031 51.714844 38.0625 52.164062 37.613281 52.460938 C 37.242188 52.683594 36.050781 52.757812 36.050781 52.757812 " clip-rule="nonzero"/></clipPath><clipPath id="bccc25f519"><path d="M 13.933594 50.96875 L 30.261719 50.96875 L 30.261719 66.304688 L 13.933594 66.304688 Z M 13.933594 50.96875 " clip-rule="nonzero"/></clipPath><clipPath id="7a98c459b1"><path d="M 21.378906 51.417969 C 24.730469 55.589844 24.878906 56.480469 24.804688 57.449219 C 24.804688 58.417969 24.507812 59.535156 23.988281 60.578125 C 23.242188 61.992188 21.457031 64.375 20.339844 64.898438 C 19.742188 65.195312 19.148438 65.195312 18.625 65.046875 C 18.105469 64.898438 17.507812 64.523438 17.210938 64.003906 C 16.914062 63.40625 16.765625 62.515625 17.0625 61.695312 C 17.359375 60.726562 18.996094 58.714844 19.816406 58.714844 C 20.414062 58.714844 20.933594 60.207031 21.53125 60.207031 C 22.050781 60.207031 22.648438 58.714844 23.242188 58.714844 C 23.839844 58.789062 24.730469 60.503906 24.957031 60.355469 C 25.179688 60.28125 24.730469 58.046875 24.507812 58.046875 C 24.210938 57.972656 23.539062 59.683594 23.316406 60.652344 C 23.09375 61.84375 23.6875 63.78125 23.316406 64.746094 C 23.09375 65.34375 22.574219 65.789062 22.050781 66.015625 C 21.53125 66.238281 20.785156 66.386719 20.1875 66.164062 C 19.519531 65.789062 18.625 64.898438 18.402344 63.855469 C 18.03125 62.140625 19.222656 58.34375 20.039062 56.40625 C 20.5625 55.066406 21.007812 53.726562 21.976562 53.207031 C 23.019531 52.609375 25.03125 52.832031 26.070312 53.28125 C 26.890625 53.578125 27.414062 54.175781 28.007812 54.992188 C 28.828125 56.257812 29.796875 58.714844 30.019531 60.207031 C 30.242188 61.246094 30.242188 62.214844 29.945312 62.960938 C 29.644531 63.707031 29.050781 64.523438 28.378906 64.824219 C 27.710938 65.046875 26.59375 64.898438 25.996094 64.523438 C 25.476562 64.226562 25.253906 63.78125 24.957031 63.109375 C 24.359375 61.695312 24.957031 57.003906 24.0625 56.558594 C 23.539062 56.257812 22.574219 57.671875 21.828125 57.597656 C 21.15625 57.597656 20.113281 57.003906 19.742188 56.332031 C 19.371094 55.589844 19.519531 53.875 20.113281 53.207031 C 20.636719 52.609375 22.421875 52.386719 23.167969 52.683594 C 23.839844 52.984375 24.507812 54.023438 24.582031 54.695312 C 24.65625 55.441406 24.210938 56.480469 23.6875 57.003906 C 23.167969 57.449219 21.976562 57.671875 21.304688 57.523438 C 20.636719 57.300781 19.742188 56.558594 19.519531 55.886719 C 19.296875 55.140625 19.371094 54.097656 19.890625 53.429688 C 20.710938 52.460938 23.464844 51.34375 24.804688 51.417969 C 25.699219 51.417969 26.371094 52.015625 26.964844 52.609375 C 27.5625 53.132812 28.007812 53.875 28.378906 54.769531 C 28.976562 56.109375 29.496094 58.195312 29.722656 59.757812 C 29.871094 61.097656 30.167969 62.664062 29.722656 63.554688 C 29.347656 64.226562 28.453125 64.824219 27.785156 64.972656 C 27.113281 65.046875 26.070312 64.824219 25.550781 64.152344 C 24.730469 63.109375 25.253906 58.046875 24.878906 57.972656 C 24.433594 57.972656 24.0625 64.003906 23.019531 65.269531 C 22.421875 65.9375 21.53125 66.3125 20.785156 66.238281 C 20.113281 66.164062 19.222656 65.789062 18.773438 64.972656 C 17.957031 63.707031 17.957031 59.90625 18.476562 57.898438 C 18.847656 56.257812 19.890625 54.546875 20.859375 53.652344 C 21.53125 52.984375 22.273438 52.609375 23.09375 52.386719 C 23.839844 52.238281 24.804688 52.164062 25.625 52.535156 C 26.816406 53.058594 28.53125 54.917969 29.273438 56.109375 C 29.871094 57.078125 30.09375 58.121094 30.167969 59.089844 C 30.242188 60.054688 30.09375 61.171875 29.644531 62.066406 C 29.273438 62.960938 28.53125 64.003906 27.710938 64.597656 C 26.816406 65.195312 25.476562 65.640625 24.507812 65.566406 C 23.539062 65.566406 22.421875 64.972656 21.679688 64.375 C 21.007812 63.78125 20.488281 63.109375 20.113281 62.066406 C 19.59375 60.726562 19.222656 57.898438 19.59375 56.558594 C 19.890625 55.515625 20.5625 54.695312 21.304688 54.175781 C 21.976562 53.652344 22.945312 53.355469 23.765625 53.429688 C 24.65625 53.503906 25.773438 54.175781 26.445312 54.769531 C 27.039062 55.367188 27.339844 56.109375 27.636719 56.929688 C 27.933594 57.824219 28.304688 58.941406 28.15625 59.832031 C 28.007812 60.726562 27.488281 61.695312 26.890625 62.363281 C 26.222656 63.183594 25.105469 63.929688 24.136719 64.226562 C 23.242188 64.523438 22.125 64.671875 21.230469 64.375 C 20.1875 64.152344 18.996094 63.332031 18.253906 62.589844 C 17.65625 61.769531 17.136719 60.726562 17.136719 59.757812 C 17.0625 58.714844 17.433594 57.375 18.105469 56.558594 C 18.847656 55.738281 20.113281 55.066406 21.15625 54.992188 C 22.125 54.84375 23.390625 55.214844 24.136719 55.8125 C 24.957031 56.40625 25.625 57.75 25.847656 58.714844 C 25.996094 59.460938 25.996094 60.28125 25.625 61.097656 C 25.105469 62.214844 23.464844 64.152344 22.273438 64.671875 C 21.378906 65.121094 20.265625 64.898438 19.296875 64.671875 C 18.253906 64.449219 17.210938 63.855469 16.390625 63.109375 C 15.574219 62.4375 14.753906 61.398438 14.308594 60.503906 C 14.007812 59.609375 13.859375 58.714844 14.007812 57.75 C 14.308594 56.40625 15.574219 54.25 16.691406 53.355469 C 17.582031 52.535156 18.921875 52.015625 19.964844 52.015625 C 21.007812 51.941406 22.347656 52.535156 23.09375 53.132812 C 23.839844 53.652344 24.285156 54.472656 24.582031 55.289062 C 24.878906 56.035156 25.105469 56.929688 24.957031 57.898438 C 24.804688 59.386719 23.839844 61.84375 22.796875 63.035156 C 21.976562 64.078125 20.710938 64.972656 19.742188 65.121094 C 18.996094 65.195312 18.03125 64.898438 17.582031 64.449219 C 17.0625 64.003906 16.765625 63.035156 16.839844 62.289062 C 17.0625 61.246094 19.074219 59.90625 19.519531 58.714844 C 19.890625 57.824219 20.113281 56.855469 19.816406 56.035156 C 19.59375 55.289062 18.179688 54.84375 17.882812 54.175781 C 17.65625 53.652344 17.582031 53.058594 17.730469 52.535156 C 17.957031 52.015625 18.699219 51.195312 19.296875 51.046875 C 19.890625 50.824219 21.378906 51.417969 21.378906 51.417969 " clip-rule="nonzero"/></clipPath><clipPath id="9c795de74f"><path d="M 24.566406 51.347656 L 30.699219 51.347656 L 30.699219 65.582031 L 24.566406 65.582031 Z M 24.566406 51.347656 " clip-rule="nonzero"/></clipPath><clipPath id="85fc4df284"><path d="M 26.53125 51.570312 C 29.507812 55.589844 30.253906 57.675781 30.550781 59.015625 C 30.699219 60.058594 30.773438 60.804688 30.550781 61.699219 C 30.402344 62.738281 29.882812 64.082031 29.433594 64.75 C 29.136719 65.121094 28.839844 65.421875 28.464844 65.496094 C 28.167969 65.570312 27.574219 65.421875 27.351562 65.121094 C 27.125 64.898438 26.902344 64.378906 26.976562 64.007812 C 27.050781 63.632812 27.425781 63.1875 27.722656 63.039062 C 28.09375 62.964844 28.988281 63.113281 29.210938 63.410156 C 29.507812 63.707031 29.582031 64.304688 29.433594 64.601562 C 29.359375 64.972656 28.988281 65.347656 28.617188 65.496094 C 28.316406 65.570312 27.722656 65.570312 27.425781 65.273438 C 26.828125 64.453125 28.09375 60.507812 27.796875 58.570312 C 27.648438 57.082031 27.050781 55.742188 26.457031 54.699219 C 25.933594 53.878906 24.667969 53.207031 24.59375 52.613281 C 24.519531 52.167969 24.890625 51.570312 25.191406 51.421875 C 25.488281 51.273438 26.53125 51.570312 26.53125 51.570312 " clip-rule="nonzero"/></clipPath><clipPath id="e653cebfe1"><path d="M 32.386719 49.707031 L 48.285156 49.707031 L 48.285156 60.074219 L 32.386719 60.074219 Z M 32.386719 49.707031 " clip-rule="nonzero"/></clipPath><clipPath id="e56c5cfb6a"><path d="M 45.816406 58.867188 C 44.847656 55.144531 40.902344 54.027344 38.667969 53.28125 C 36.804688 52.761719 34.199219 53.058594 33.230469 52.316406 C 32.710938 51.941406 32.339844 50.976562 32.5625 50.601562 C 32.710938 50.230469 33.902344 49.859375 34.347656 50.007812 C 34.648438 50.082031 35.019531 50.601562 35.019531 50.976562 C 35.019531 51.421875 34.574219 52.167969 34.199219 52.316406 C 33.902344 52.464844 33.308594 52.390625 33.007812 52.242188 C 32.710938 52.015625 32.414062 51.496094 32.414062 51.125 C 32.488281 50.75 33.082031 50.082031 33.753906 49.859375 C 34.871094 49.484375 37.03125 50.230469 38.742188 50.75 C 40.753906 51.273438 43.285156 52.089844 44.921875 53.132812 C 46.1875 54.027344 47.605469 55.070312 48.050781 56.1875 C 48.421875 57.230469 48.273438 59.089844 47.828125 59.613281 C 47.53125 59.984375 46.859375 60.058594 46.5625 59.984375 C 46.1875 59.835938 45.816406 58.867188 45.816406 58.867188 " clip-rule="nonzero"/></clipPath><clipPath id="967abc2dae"><path d="M 55.851562 81.417969 L 77.9375 81.417969 L 77.9375 95.402344 L 55.851562 95.402344 Z M 55.851562 81.417969 " clip-rule="nonzero"/></clipPath><clipPath id="e44fd1653e"><path d="M 51.214844 75.617188 L 92.492188 75.617188 L 92.492188 99.105469 L 51.214844 99.105469 Z M 51.214844 75.617188 " clip-rule="nonzero"/></clipPath><clipPath id="a39a54f5ab"><path d="M 77.40625 82.371094 C 64 81.328125 61.992188 82.074219 60.277344 83.042969 C 58.714844 83.859375 56.925781 85.125 56.40625 86.316406 C 55.957031 87.210938 56.183594 88.402344 56.554688 89.222656 C 56.851562 90.039062 57.523438 90.636719 58.339844 91.308594 C 59.683594 92.199219 61.839844 93.019531 64.148438 93.539062 C 67.425781 94.210938 73.085938 94.359375 76.363281 94.0625 C 78.671875 93.839844 80.382812 93.539062 82.097656 92.722656 C 83.808594 91.976562 85.894531 90.488281 86.5625 89.371094 C 87.011719 88.625 87.160156 87.734375 87.011719 87.0625 C 86.863281 86.390625 86.414062 85.871094 85.746094 85.199219 C 84.402344 84.082031 81.574219 82.519531 79.042969 81.699219 C 75.988281 80.808594 71.820312 80.582031 68.542969 80.808594 C 65.414062 80.957031 61.246094 83.339844 59.53125 82.667969 C 58.566406 82.296875 57.96875 80.957031 57.894531 80.285156 C 57.820312 79.691406 58.117188 79.167969 58.417969 78.796875 C 58.863281 78.351562 59.90625 77.902344 60.574219 77.976562 C 61.246094 77.976562 62.140625 78.648438 62.4375 79.242188 C 62.808594 79.765625 62.808594 80.882812 62.511719 81.476562 C 62.140625 82.074219 61.246094 82.742188 60.574219 82.816406 C 59.90625 82.890625 58.9375 82.445312 58.492188 81.925781 C 58.042969 81.476562 57.820312 80.359375 57.96875 79.765625 C 58.117188 79.09375 58.714844 78.574219 59.53125 78.050781 C 61.023438 77.160156 64.523438 76.414062 66.90625 75.96875 C 69.066406 75.667969 71 75.59375 73.160156 75.742188 C 75.542969 75.894531 78.222656 76.191406 80.605469 76.933594 C 82.988281 77.679688 85.894531 78.945312 87.457031 79.988281 C 88.425781 80.582031 88.796875 81.03125 89.46875 81.851562 C 90.4375 83.117188 92 85.5 92.296875 87.0625 C 92.519531 88.253906 92.371094 89.371094 91.851562 90.488281 C 91.253906 91.828125 89.839844 93.242188 88.574219 94.359375 C 87.160156 95.550781 85.519531 96.59375 83.660156 97.339844 C 81.648438 98.15625 79.5625 98.679688 76.734375 98.902344 C 72.714844 99.199219 65.566406 98.902344 61.765625 98.007812 C 59.308594 97.414062 57.597656 96.816406 55.957031 95.550781 C 54.320312 94.285156 52.609375 92.050781 51.863281 90.488281 C 51.417969 89.445312 51.269531 88.625 51.34375 87.507812 C 51.492188 86.09375 52.234375 83.933594 53.128906 82.667969 C 53.800781 81.550781 54.617188 80.957031 55.734375 80.210938 C 57.226562 79.242188 59.234375 78.277344 61.320312 77.679688 C 63.628906 76.933594 66.457031 76.339844 69.289062 76.339844 C 72.414062 76.414062 77.777344 77.007812 79.265625 78.351562 C 79.9375 79.019531 80.160156 80.136719 80.011719 80.808594 C 79.9375 81.328125 79.414062 81.777344 78.96875 82.074219 C 78.597656 82.296875 77.40625 82.371094 77.40625 82.371094 " clip-rule="nonzero"/></clipPath><clipPath id="47f2688a63"><path d="M 72.90625 81.523438 L 87.351562 81.523438 L 87.351562 94.910156 L 72.90625 94.910156 Z M 72.90625 81.523438 " clip-rule="nonzero"/></clipPath><clipPath id="c544bd02ff"><path d="M 72.9375 87.285156 C 74.648438 83.488281 75.839844 82.667969 76.734375 82.222656 C 77.554688 81.777344 78.371094 81.476562 79.191406 81.550781 C 80.234375 81.625 82.171875 82.890625 82.394531 83.117188 C 82.394531 83.191406 82.394531 83.191406 82.394531 83.191406 C 82.542969 83.265625 83.585938 82.667969 84.253906 82.816406 C 85.148438 83.042969 86.488281 84.234375 86.9375 85.125 C 87.308594 85.945312 86.863281 87.359375 87.011719 87.882812 C 87.085938 88.105469 87.234375 88.105469 87.234375 88.328125 C 87.382812 88.847656 87.308594 90.339844 86.9375 91.15625 C 86.636719 92.050781 85.96875 93.09375 85.074219 93.613281 C 84.105469 94.285156 81.648438 94.65625 81.128906 94.507812 C 80.980469 94.507812 80.980469 94.359375 80.828125 94.285156 C 80.382812 94.210938 78.820312 94.957031 78.148438 94.882812 C 77.703125 94.808594 77.179688 94.359375 77.105469 94.285156 C 77.03125 94.285156 76.882812 94.359375 76.808594 94.359375 C 76.734375 94.359375 76.734375 94.359375 76.660156 94.359375 C 76.660156 94.359375 76.585938 94.359375 76.511719 94.359375 C 76.4375 94.359375 76.363281 94.285156 76.289062 94.285156 C 76.214844 94.210938 76.0625 94.210938 75.988281 94.210938 C 75.914062 94.210938 75.914062 94.136719 75.914062 94.136719 C 75.839844 94.136719 75.765625 94.136719 75.765625 94.136719 C 75.691406 94.0625 75.617188 93.988281 75.542969 93.988281 C 75.46875 93.914062 75.320312 93.914062 75.246094 93.839844 C 75.246094 93.765625 75.246094 93.765625 75.171875 93.765625 C 75.171875 93.691406 75.097656 93.691406 75.023438 93.613281 C 75.023438 93.613281 74.949219 93.464844 74.871094 93.464844 C 74.796875 93.390625 74.722656 93.316406 74.722656 93.242188 C 74.648438 93.167969 74.722656 93.167969 74.648438 93.167969 C 74.648438 93.09375 74.574219 93.09375 74.574219 93.019531 C 74.5 92.871094 74.351562 92.421875 74.277344 92.199219 C 74.277344 92.050781 74.351562 92.050781 74.277344 91.902344 C 74.203125 91.308594 73.085938 88.328125 73.085938 88.03125 C 73.160156 87.957031 73.160156 87.957031 73.160156 87.957031 C 73.160156 87.808594 72.9375 87.285156 72.9375 87.285156 " clip-rule="nonzero"/></clipPath><clipPath id="67256985ef"><path d="M 74.070312 82.613281 L 88.597656 82.613281 L 88.597656 94.640625 L 74.070312 94.640625 Z M 74.070312 82.613281 " clip-rule="nonzero"/></clipPath><clipPath id="942f71139d"><path d="M 81.648438 87.210938 C 79.789062 87.808594 78.671875 89.371094 78.820312 89.519531 C 79.042969 89.742188 82.171875 88.402344 83.136719 87.359375 C 84.03125 86.390625 83.808594 84.308594 84.628906 83.710938 C 85.222656 83.265625 86.339844 83.265625 87.011719 83.5625 C 87.679688 83.859375 88.277344 84.679688 88.5 85.425781 C 88.722656 86.464844 88.425781 88.105469 87.753906 89.222656 C 86.9375 90.488281 84.925781 91.679688 83.4375 92.421875 C 82.019531 93.167969 80.234375 94.136719 79.042969 93.839844 C 78.074219 93.613281 76.957031 92.5 76.808594 91.679688 C 76.660156 90.859375 77.554688 89.296875 78.296875 88.925781 C 78.894531 88.550781 80.085938 88.773438 80.679688 89.074219 C 81.203125 89.296875 81.648438 89.816406 81.796875 90.339844 C 81.945312 90.933594 81.945312 92.125 81.5 92.722656 C 81.128906 93.316406 80.085938 93.914062 79.339844 93.914062 C 78.671875 93.914062 77.628906 93.316406 77.179688 92.722656 C 76.808594 92.125 76.585938 91.082031 76.957031 90.339844 C 77.480469 89.222656 80.53125 88.625 81.871094 87.507812 C 83.0625 86.390625 83.511719 84.234375 84.628906 83.710938 C 85.445312 83.265625 86.863281 83.339844 87.53125 83.859375 C 88.203125 84.382812 88.574219 85.722656 88.5 86.839844 C 88.425781 88.253906 87.382812 90.488281 86.5625 91.53125 C 85.894531 92.347656 85.074219 92.796875 84.179688 93.167969 C 83.289062 93.539062 82.246094 93.839844 81.351562 93.765625 C 80.382812 93.691406 79.191406 93.242188 78.523438 92.648438 C 77.851562 91.976562 77.40625 90.859375 77.253906 90.039062 C 77.179688 89.222656 77.253906 88.476562 77.628906 87.734375 C 78 86.914062 78.96875 86.019531 79.863281 85.5 C 80.605469 85.050781 81.574219 84.679688 82.320312 84.753906 C 83.136719 84.753906 84.105469 85.050781 84.703125 85.648438 C 85.371094 86.316406 85.894531 87.808594 85.894531 88.773438 C 85.894531 89.667969 85.519531 90.5625 84.925781 91.382812 C 84.03125 92.5 81.871094 94.136719 80.457031 94.507812 C 79.339844 94.808594 78.074219 94.433594 77.105469 94.0625 C 76.363281 93.691406 75.617188 93.019531 75.171875 92.421875 C 74.648438 91.753906 74.203125 91.082031 74.128906 90.191406 C 74.054688 89.222656 74.277344 87.882812 74.949219 86.765625 C 75.765625 85.425781 77.925781 83.5625 79.265625 82.96875 C 80.160156 82.59375 81.054688 82.519531 81.722656 82.742188 C 82.246094 82.890625 82.765625 83.191406 83.0625 83.636719 C 83.363281 84.234375 83.511719 85.199219 83.289062 85.796875 C 83.0625 86.390625 81.648438 87.210938 81.648438 87.210938 " clip-rule="nonzero"/></clipPath><clipPath id="36cf4fd843"><path d="M 73.175781 83.910156 L 81.375 83.910156 L 81.375 95.230469 L 73.175781 95.230469 Z M 73.175781 83.910156 " clip-rule="nonzero"/></clipPath><clipPath id="ba19035121"><path d="M 80.382812 87.882812 C 78.894531 89.964844 80.980469 91.15625 81.203125 92.125 C 81.425781 92.796875 81.203125 93.765625 80.828125 94.285156 C 80.382812 94.808594 79.488281 95.179688 78.746094 95.179688 C 77.703125 95.179688 76.214844 94.285156 75.320312 93.539062 C 74.5 92.871094 73.605469 91.902344 73.308594 90.933594 C 73.085938 90.039062 73.160156 88.847656 73.53125 87.808594 C 73.90625 86.691406 75.023438 85.199219 75.914062 84.605469 C 76.660156 84.160156 77.554688 83.933594 78.222656 84.082031 C 78.746094 84.160156 79.265625 84.53125 79.5625 84.902344 C 79.863281 85.351562 80.085938 85.871094 80.085938 86.464844 C 80.011719 87.0625 79.5625 88.105469 78.96875 88.476562 C 78.445312 88.925781 77.332031 89 76.660156 88.773438 C 76.0625 88.550781 75.246094 87.734375 75.171875 86.988281 C 75.023438 86.242188 75.691406 84.679688 76.363281 84.308594 C 77.105469 83.859375 78.746094 84.234375 79.339844 84.753906 C 79.863281 85.199219 80.234375 86.242188 80.011719 86.988281 C 79.789062 87.808594 77.554688 88.476562 77.628906 89.148438 C 77.703125 89.890625 80.011719 90.414062 80.679688 91.082031 C 81.054688 91.605469 81.351562 92.125 81.351562 92.648438 C 81.277344 93.390625 80.605469 94.65625 79.863281 95.03125 C 79.191406 95.328125 77.925781 95.03125 77.179688 94.65625 C 76.363281 94.285156 75.542969 93.691406 75.097656 92.796875 C 74.425781 91.679688 74.054688 89.445312 74.351562 88.179688 C 74.574219 87.210938 75.171875 86.464844 75.839844 85.796875 C 76.585938 85.050781 77.925781 83.859375 78.820312 83.933594 C 79.636719 83.933594 80.753906 84.679688 80.980469 85.351562 C 81.277344 86.019531 80.382812 87.882812 80.382812 87.882812 " clip-rule="nonzero"/></clipPath><clipPath id="2e760eee8a"><path d="M 71.871094 81.453125 L 78.996094 81.453125 L 78.996094 95.605469 L 71.871094 95.605469 Z M 71.871094 81.453125 " clip-rule="nonzero"/></clipPath><clipPath id="abb8702068"><path d="M 78.5 83.566406 C 74.554688 87.214844 74.328125 88.03125 74.480469 88.851562 C 74.554688 89.96875 75.371094 91.382812 76.117188 92.277344 C 76.710938 93.023438 78.277344 93.320312 78.351562 93.992188 C 78.5 94.4375 77.828125 95.40625 77.382812 95.554688 C 77.011719 95.703125 76.191406 95.257812 75.96875 94.882812 C 75.746094 94.511719 75.96875 93.691406 76.265625 93.320312 C 76.488281 93.097656 77.085938 92.949219 77.382812 93.023438 C 77.828125 93.171875 78.351562 93.839844 78.425781 94.214844 C 78.425781 94.585938 78.277344 95.183594 77.902344 95.332031 C 77.234375 95.554688 75 94.4375 74.03125 93.617188 C 73.214844 92.949219 72.617188 91.90625 72.246094 91.011719 C 71.945312 90.191406 71.871094 89.523438 71.945312 88.628906 C 72.023438 87.511719 72.617188 85.875 73.214844 84.90625 C 73.808594 84.085938 74.554688 83.492188 75.296875 82.96875 C 76.117188 82.375 77.234375 81.40625 77.902344 81.480469 C 78.351562 81.480469 78.796875 81.925781 78.945312 82.300781 C 79.019531 82.597656 78.5 83.566406 78.5 83.566406 " clip-rule="nonzero"/></clipPath></defs><g clip-path="url(#3afe1b6fe3)"><path fill="#ffffff" d="M 55.851562 23.738281 L 78.582031 23.738281 L 78.582031 37.722656 L 55.851562 37.722656 Z M 55.851562 23.738281 " fill-opacity="1" fill-rule="nonzero"/></g><g clip-path="url(#33750682d3)"><g clip-path="url(#c2d0ab42be)"><path fill="#1e1e1e" d="M 48.363281 15.328125 L 95.226562 15.328125 L 95.226562 44.515625 L 48.363281 44.515625 Z M 48.363281 15.328125 " fill-opacity="1" fill-rule="nonzero"/></g></g><g clip-path="url(#5246505dff)"><g clip-path="url(#992df54021)"><path fill="#1e1e1e" d="M 70.628906 21.136719 L 90.972656 21.136719 L 90.972656 40.496094 L 70.628906 40.496094 Z M 70.628906 21.136719 " fill-opacity="1" fill-rule="nonzero"/></g></g><g clip-path="url(#c957fbad6c)"><g clip-path="url(#b538033451)"><path fill="#1e1e1e" d="M 71.820312 22.328125 L 92.121094 22.328125 L 92.121094 40.125 L 71.820312 40.125 Z M 71.820312 22.328125 " fill-opacity="1" fill-rule="nonzero"/></g></g><g clip-path="url(#b52e31ec22)"><g clip-path="url(#e040ad5fa9)"><path fill="#1e1e1e" d="M 71 23.519531 L 85 23.519531 L 85 40.800781 L 71 40.800781 Z M 71 23.519531 " fill-opacity="1" fill-rule="nonzero"/></g></g><g clip-path="url(#94901d40fd)"><g clip-path="url(#eb87816d84)"><path fill="#1e1e1e" d="M 70.53125 21.585938 L 82.820312 21.585938 L 82.820312 40.109375 L 70.53125 40.109375 Z M 70.53125 21.585938 " fill-opacity="1" fill-rule="nonzero"/></g></g><g clip-path="url(#84f4d4e3ef)"><g clip-path="url(#db2f7556e9)"><path fill="#1e1e1e" d="M 70.605469 24.488281 L 82.371094 24.488281 L 82.371094 40.851562 L 70.605469 40.851562 Z M 70.605469 24.488281 " fill-opacity="1" fill-rule="nonzero"/></g></g><g clip-path="url(#4b3500d8df)"><path fill="#ffffff" d="M 25.015625 51.523438 L 45.832031 51.523438 L 45.832031 65.507812 L 25.015625 65.507812 Z M 25.015625 51.523438 " fill-opacity="1" fill-rule="nonzero"/></g><g clip-path="url(#c8af3ad927)"><g clip-path="url(#7ca2f12ebb)"><path fill="#1e1e1e" d="M 7.007812 43.152344 L 53.871094 43.152344 L 53.871094 72.34375 L 7.007812 72.34375 Z M 7.007812 43.152344 " fill-opacity="1" fill-rule="nonzero"/></g></g><g clip-path="url(#bccc25f519)"><g clip-path="url(#7a98c459b1)"><path fill="#1e1e1e" d="M 11.03125 48.066406 L 33.164062 48.066406 L 33.164062 69.289062 L 11.03125 69.289062 Z M 11.03125 48.066406 " fill-opacity="1" fill-rule="nonzero"/></g></g><g clip-path="url(#9c795de74f)"><g clip-path="url(#85fc4df284)"><path fill="#1e1e1e" d="M 21.617188 48.441406 L 33.605469 48.441406 L 33.605469 68.488281 L 21.617188 68.488281 Z M 21.617188 48.441406 " fill-opacity="1" fill-rule="nonzero"/></g></g><g clip-path="url(#e653cebfe1)"><g clip-path="url(#e56c5cfb6a)"><path fill="#1e1e1e" d="M 29.433594 46.878906 L 51.046875 46.878906 L 51.046875 62.964844 L 29.433594 62.964844 Z M 29.433594 46.878906 " fill-opacity="1" fill-rule="nonzero"/></g></g><g clip-path="url(#967abc2dae)"><path fill="#ffffff" d="M 55.851562 81.417969 L 77.925781 81.417969 L 77.925781 95.402344 L 55.851562 95.402344 Z M 55.851562 81.417969 " fill-opacity="1" fill-rule="nonzero"/></g><g clip-path="url(#e44fd1653e)"><g clip-path="url(#a39a54f5ab)"><path fill="#1e1e1e" d="M 48.363281 72.765625 L 95.226562 72.765625 L 95.226562 101.957031 L 48.363281 101.957031 Z M 48.363281 72.765625 " fill-opacity="1" fill-rule="nonzero"/></g></g><g clip-path="url(#47f2688a63)"><g clip-path="url(#c544bd02ff)"><path fill="#1e1e1e" d="M 69.957031 78.574219 L 90.300781 78.574219 L 90.300781 97.933594 L 69.957031 97.933594 Z M 69.957031 78.574219 " fill-opacity="1" fill-rule="nonzero"/></g></g><g clip-path="url(#67256985ef)"><g clip-path="url(#942f71139d)"><path fill="#1e1e1e" d="M 71.148438 79.765625 L 91.449219 79.765625 L 91.449219 97.5625 L 71.148438 97.5625 Z M 71.148438 79.765625 " fill-opacity="1" fill-rule="nonzero"/></g></g><g clip-path="url(#36cf4fd843)"><g clip-path="url(#ba19035121)"><path fill="#1e1e1e" d="M 70.332031 80.957031 L 84.328125 80.957031 L 84.328125 98.238281 L 70.332031 98.238281 Z M 70.332031 80.957031 " fill-opacity="1" fill-rule="nonzero"/></g></g><g clip-path="url(#2e760eee8a)"><g clip-path="url(#abb8702068)"><path fill="#1e1e1e" d="M 68.96875 78.5 L 82 78.5 L 82 98.609375 L 68.96875 98.609375 Z M 68.96875 78.5 " fill-opacity="1" fill-rule="nonzero"/></g></g><g fill="#ff3131" fill-opacity="1"><g transform="translate(56.158612, 70.648268)"><g><path d="M 7.6875 0.25 C 5.425781 0.25 3.804688 -0.390625 2.828125 -1.671875 C 1.859375 -2.953125 1.375 -4.804688 1.375 -7.234375 L 1.375 -15.984375 C 1.375 -18.367188 1.863281 -20.175781 2.84375 -21.40625 C 3.832031 -22.644531 5.445312 -23.265625 7.6875 -23.265625 C 9.925781 -23.265625 11.535156 -22.644531 12.515625 -21.40625 C 13.492188 -20.164062 13.984375 -18.359375 13.984375 -15.984375 L 13.984375 -7.203125 C 13.984375 -4.816406 13.488281 -2.976562 12.5 -1.6875 C 11.519531 -0.394531 9.914062 0.25 7.6875 0.25 Z M 7.6875 -2.28125 C 8.882812 -2.28125 9.691406 -2.628906 10.109375 -3.328125 C 10.523438 -4.035156 10.734375 -5.097656 10.734375 -6.515625 L 10.734375 -16.640625 C 10.734375 -18.046875 10.523438 -19.082031 10.109375 -19.75 C 9.691406 -20.425781 8.882812 -20.765625 7.6875 -20.765625 C 6.476562 -20.765625 5.660156 -20.425781 5.234375 -19.75 C 4.816406 -19.082031 4.609375 -18.046875 4.609375 -16.640625 L 4.609375 -6.515625 C 4.609375 -5.097656 4.816406 -4.035156 5.234375 -3.328125 C 5.660156 -2.628906 6.476562 -2.28125 7.6875 -2.28125 Z M 7.6875 -2.28125 "/></g></g></g><g fill="#ff3131" fill-opacity="1"><g transform="translate(74.360221, 70.648268)"><g><path d="M 1.796875 -23.078125 L 5.015625 -23.078125 L 5.015625 -2.3125 L 10.90625 -2.3125 L 10.90625 0 L 1.796875 0 Z M 1.796875 -23.078125 "/></g></g></g><g fill="#ff3131" fill-opacity="1"><g transform="translate(20.259235, 41.675444)"><g><path d="M 1.96875 -23.078125 L 5.125 -23.078125 L 5.125 0 L 1.96875 0 Z M 1.96875 -23.078125 "/></g></g></g><g fill="#ff3131" fill-opacity="1"><g transform="translate(30.171193, 41.675444)"><g><path d="M 7.234375 0.25 C 5.296875 0.25 3.816406 -0.34375 2.796875 -1.53125 C 1.785156 -2.726562 1.222656 -4.375 1.109375 -6.46875 L 3.953125 -7.234375 C 4.054688 -5.753906 4.347656 -4.554688 4.828125 -3.640625 C 5.304688 -2.734375 6.109375 -2.28125 7.234375 -2.28125 C 8.066406 -2.28125 8.695312 -2.507812 9.125 -2.96875 C 9.550781 -3.4375 9.765625 -4.109375 9.765625 -4.984375 C 9.765625 -5.929688 9.566406 -6.71875 9.171875 -7.34375 C 8.773438 -7.96875 8.140625 -8.660156 7.265625 -9.421875 L 3.390625 -12.84375 C 2.609375 -13.53125 2.039062 -14.265625 1.6875 -15.046875 C 1.34375 -15.835938 1.171875 -16.800781 1.171875 -17.9375 C 1.171875 -19.632812 1.65625 -20.945312 2.625 -21.875 C 3.59375 -22.800781 4.910156 -23.265625 6.578125 -23.265625 C 8.398438 -23.265625 9.773438 -22.78125 10.703125 -21.8125 C 11.640625 -20.84375 12.203125 -19.34375 12.390625 -17.3125 L 9.65625 -16.578125 C 9.5625 -17.921875 9.300781 -18.957031 8.875 -19.6875 C 8.445312 -20.425781 7.679688 -20.796875 6.578125 -20.796875 C 5.765625 -20.796875 5.140625 -20.582031 4.703125 -20.15625 C 4.265625 -19.726562 4.046875 -19.097656 4.046875 -18.265625 C 4.046875 -17.578125 4.160156 -17 4.390625 -16.53125 C 4.617188 -16.070312 5.003906 -15.601562 5.546875 -15.125 L 9.453125 -11.703125 C 10.460938 -10.816406 11.265625 -9.847656 11.859375 -8.796875 C 12.460938 -7.753906 12.765625 -6.566406 12.765625 -5.234375 C 12.765625 -3.546875 12.25 -2.207031 11.21875 -1.21875 C 10.195312 -0.238281 8.867188 0.25 7.234375 0.25 Z M 7.234375 0.25 "/></g></g></g><g fill="#ff3131" fill-opacity="1"><g transform="translate(17.209344, 98.18541)"><g><path d="M 1.796875 -23.078125 L 6.8125 -23.078125 C 9.300781 -23.078125 11.0625 -22.507812 12.09375 -21.375 C 13.132812 -20.238281 13.65625 -18.460938 13.65625 -16.046875 L 13.65625 -7.546875 C 13.65625 -5.003906 13.144531 -3.109375 12.125 -1.859375 C 11.113281 -0.617188 9.425781 0 7.0625 0 L 1.796875 0 Z M 6.84375 -2.3125 C 7.957031 -2.3125 8.765625 -2.53125 9.265625 -2.96875 C 9.773438 -3.40625 10.09375 -4 10.21875 -4.75 C 10.34375 -5.5 10.40625 -6.632812 10.40625 -8.15625 L 10.40625 -15.640625 C 10.40625 -16.953125 10.320312 -17.953125 10.15625 -18.640625 C 10 -19.335938 9.660156 -19.851562 9.140625 -20.1875 C 8.628906 -20.519531 7.832031 -20.6875 6.75 -20.6875 L 5.015625 -20.6875 L 5.015625 -2.3125 Z M 6.84375 -2.3125 "/></g></g></g><g fill="#ff3131" fill-opacity="1"><g transform="translate(35.075753, 98.18541)"><g><path d="M 1.796875 -23.078125 L 10.75 -23.078125 L 10.75 -20.6875 L 5.015625 -20.6875 L 5.015625 -13.046875 L 9.65625 -13.046875 L 9.65625 -10.765625 L 5.015625 -10.765625 L 5.015625 -2.3125 L 10.796875 -2.3125 L 10.796875 0 L 1.796875 0 Z M 1.796875 -23.078125 "/></g></g></g></svg>